<svg id="Group_1584" data-name="Group 1584" xmlns="http://www.w3.org/2000/svg" xmlns:xlink="http://www.w3.org/1999/xlink" width="155.396" height="54.622" viewBox="0 0 155.396 54.622">
  <defs>
    <clipPath id="clip-path">
      <rect id="Rectangle_35" data-name="Rectangle 35" width="155.396" height="54.622" fill="#ffffff"/>
    </clipPath>
  </defs>
  <g id="Group_39" data-name="Group 39" clip-path="url(#clip-path)">
    <path id="Path_21" data-name="Path 21" d="M0,120.76a2.016,2.016,0,0,0,2.133-2.134V94.73A2.016,2.016,0,0,0,0,92.6v-.853H12.546c19.629.341,19.5,29.871-.342,29.871H0ZM7.254,94.73v23.9a2.016,2.016,0,0,0,2.134,2.134h2.859c12.887,0,12.887-28.164,0-28.164H9.388A2.016,2.016,0,0,0,7.254,94.73" transform="translate(0 -66.992)" fill="#ffffff"/>
    <path id="Path_22" data-name="Path 22" d="M133.068,100.662h-.853v-.342c0-4.651-3.073-7.724-7.724-7.724h-7.767a2.016,2.016,0,0,0-2.134,2.134v10.754a1.1,1.1,0,0,0,1.152,1.152h5.035a4.524,4.524,0,0,0,4.78-4.779h.853v10.412h-.853a4.524,4.524,0,0,0-4.78-4.779h-5.035a1.1,1.1,0,0,0-1.152,1.152v9.986a2.016,2.016,0,0,0,2.134,2.134h7.767c4.651,0,7.724-3.073,7.724-7.724V112.7h.853v8.919H107.336v-.854a2.016,2.016,0,0,0,2.133-2.134V94.73a2.016,2.016,0,0,0-2.133-2.134v-.853h25.732Z" transform="translate(-78.378 -66.992)" fill="#ffffff"/>
    <path id="Path_23" data-name="Path 23" d="M213.707,91.743H223.1V92.6a2.016,2.016,0,0,0-2.134,2.134v23.9a2.016,2.016,0,0,0,2.134,2.134h7.766c4.651,0,7.724-3.073,7.724-7.724V112.7h.854v8.919H213.707v-.854a2.016,2.016,0,0,0,2.133-2.134V94.73a2,2,0,0,0-1.451-2.048,3.3,3.3,0,0,0-.683-.086Z" transform="translate(-156.052 -66.992)" fill="#ffffff"/>
    <path id="Path_24" data-name="Path 24" d="M320.079,121.614v-.854a2.016,2.016,0,0,0,2.133-2.134V94.73a2.016,2.016,0,0,0-2.133-2.134v-.853h13.058c16.942.213,16.814,17.368-.3,17.41h-4.353a1.1,1.1,0,0,0-1.152,1.152v8.321a2.016,2.016,0,0,0,2.134,2.134v.854Zm7.254-26.885v12.418a1.1,1.1,0,0,0,1.152,1.152h4.353c10.157,0,10.157-15.7,0-15.7h-3.371a2.016,2.016,0,0,0-2.134,2.134" transform="translate(-233.727 -66.992)" fill="#ffffff"/>
    <path id="Path_25" data-name="Path 25" d="M421.858,91.743h9.388V92.6a2.016,2.016,0,0,0-2.134,2.134v10.754a1.1,1.1,0,0,0,1.152,1.152h12.418a1.1,1.1,0,0,0,1.152-1.152V94.73A2.016,2.016,0,0,0,441.7,92.6v-.853h9.388V92.6a2.016,2.016,0,0,0-2.134,2.134v23.9a2.016,2.016,0,0,0,2.134,2.134v.854H441.7v-.854a2.016,2.016,0,0,0,2.133-2.134v-9.986a1.1,1.1,0,0,0-1.152-1.152H430.265a1.1,1.1,0,0,0-1.152,1.152v9.986a2.016,2.016,0,0,0,2.134,2.134v.854h-9.388v-.854a2.016,2.016,0,0,0,2.134-2.134V94.73a2.016,2.016,0,0,0-2.134-2.134Z" transform="translate(-308.048 -66.992)" fill="#ffffff"/>
    <path id="Path_26" data-name="Path 26" d="M543.335,118.627V94.73A2.016,2.016,0,0,0,541.2,92.6v-.853h9.388V92.6a2.016,2.016,0,0,0-2.134,2.134v23.9a2.016,2.016,0,0,0,2.134,2.134v.854H541.2v-.854a2.016,2.016,0,0,0,2.134-2.134" transform="translate(-395.194 -66.992)" fill="#ffffff"/>
    <path id="Path_27" data-name="Path 27" d="M236.6,0h8.948v2.75h-.263V2.644A2.245,2.245,0,0,0,242.9.262h-.381a.622.622,0,0,0-.658.659V8.289a.622.622,0,0,0,.658.658v.263h-2.9V8.947a.622.622,0,0,0,.658-.658V.92a.622.622,0,0,0-.658-.659h-.382a2.245,2.245,0,0,0-2.382,2.382v.105H236.6Z" transform="translate(-172.767 0.001)" fill="#ffffff"/>
    <path id="Path_28" data-name="Path 28" d="M272.685,0h2.9V.262a.622.622,0,0,0-.658.659V4.236a.339.339,0,0,0,.356.355h3.829a.339.339,0,0,0,.355-.355V.92A.622.622,0,0,0,278.8.262V0H281.7V.262a.622.622,0,0,0-.658.659V8.289a.622.622,0,0,0,.658.658v.263H278.8V8.947a.622.622,0,0,0,.658-.658V5.21a.339.339,0,0,0-.355-.355h-3.829a.339.339,0,0,0-.356.355v3.08a.622.622,0,0,0,.658.658v.263h-2.9V8.947a.622.622,0,0,0,.658-.658V.92a.622.622,0,0,0-.658-.659Z" transform="translate(-199.119 0.001)" fill="#ffffff"/>
    <path id="Path_29" data-name="Path 29" d="M317.926,2.749h-.263V2.644A2.245,2.245,0,0,0,315.281.262h-2.395a.622.622,0,0,0-.658.659V4.236a.339.339,0,0,0,.356.355h1.553a1.4,1.4,0,0,0,1.474-1.474h.263V6.329h-.263a1.4,1.4,0,0,0-1.474-1.474h-1.553a.339.339,0,0,0-.356.355v3.08a.622.622,0,0,0,.658.658h2.395a2.245,2.245,0,0,0,2.382-2.382v-.1h.263v2.75h-7.935V8.947a.622.622,0,0,0,.658-.658V.92a.622.622,0,0,0-.658-.659V0h7.935Z" transform="translate(-226.36 0.001)" fill="#ffffff"/>
    <rect id="Rectangle_33" data-name="Rectangle 33" width="54.445" height="0.593" transform="translate(0 4.309)" fill="#ffffff"/>
    <rect id="Rectangle_34" data-name="Rectangle 34" width="54.445" height="0.593" transform="translate(100.951 4.309)" fill="#ffffff"/>
  </g>
</svg>
