<svg width="200" height="199" viewBox="0 0 200 199" fill="none" xmlns="http://www.w3.org/2000/svg">
<path d="M86.1378 180.524L83.1525 193.837L78.8554 192.874C77.9106 192.662 77.1602 192.314 76.6042 191.83C76.0429 191.349 75.6695 190.771 75.4838 190.097C75.2929 189.426 75.2844 188.703 75.4583 187.927C75.6323 187.151 75.9483 186.503 76.4065 185.982C76.8604 185.46 77.4411 185.103 78.1487 184.911C78.8562 184.719 79.6781 184.728 80.6142 184.938L84.2742 185.759L84.025 186.871L80.3975 186.057C79.704 185.902 79.1019 185.887 78.591 186.014C78.0757 186.14 77.6578 186.39 77.3372 186.764C77.0123 187.137 76.7847 187.614 76.6545 188.195C76.5243 188.776 76.5254 189.309 76.658 189.793C76.7895 190.283 77.0604 190.698 77.4707 191.041C77.8767 191.382 78.4307 191.632 79.1328 191.789L82.1817 192.473L84.9221 180.251L86.1378 180.524ZM78.9206 185.214L76.991 178.473L78.3952 178.787L80.2923 185.522L78.9206 185.214Z" fill="black"/>
<path d="M70.1177 176.099L71.3048 176.643L61.1089 186.979L59.8975 186.424L61.0688 171.952L62.2559 172.496L61.1352 185.211L61.22 185.249L70.1177 176.099ZM67.0851 180.462L60.9314 177.642L61.3977 176.625L67.5514 179.444L67.0851 180.462Z" fill="black"/>
<path d="M37.7708 172.37L46.1001 161.563L47.0605 162.303L46.4706 176.274L46.555 176.34L53.53 167.29L54.5168 168.05L46.1874 178.857L45.2323 178.121L45.8093 164.123L45.7249 164.058L38.7418 173.119L37.7708 172.37Z" fill="black"/>
<path d="M37.152 152.224L39.6693 155.329L29.07 163.921L26.4017 160.63C25.5822 159.619 25.092 158.584 24.9312 157.525C24.7676 156.463 24.9239 155.421 25.4001 154.4C25.8763 153.38 26.6647 152.423 27.7653 151.531C28.8763 150.63 29.9898 150.054 31.1056 149.801C32.2153 149.548 33.2857 149.623 34.317 150.028C35.3456 150.429 36.2906 151.161 37.152 152.224ZM38.0152 155.066L36.3287 152.986C35.5903 152.075 34.7928 151.458 33.9361 151.134C33.0794 150.811 32.1936 150.766 31.2788 150.999C30.364 151.231 29.4459 151.721 28.5247 152.468C27.6132 153.212 26.9496 154.002 26.5339 154.836C26.1155 155.667 25.968 156.519 26.0915 157.391C26.2123 158.259 26.6209 159.123 27.3173 159.982L29.1549 162.249L38.0152 155.066Z" fill="black"/>
<path d="M28.7282 140.297L29.3081 141.467L14.8788 143.08L14.287 141.886L24.3078 131.379L24.8877 132.549L16.0127 141.722L16.0541 141.805L28.7282 140.297ZM23.6251 141.778L20.619 135.713L21.6218 135.216L24.6279 141.281L23.6251 141.778Z" fill="black"/>
<path d="M21.7714 124.151L8.57541 127.62L8.25864 126.416L20.3722 123.231L18.7189 116.942L19.8014 116.658L21.7714 124.151Z" fill="black"/>
<path d="M18.5661 108.855L4.95133 109.753L4.86925 108.51L17.3672 107.685L16.9388 101.197L18.0556 101.123L18.5661 108.855Z" fill="black"/>
<path d="M19.8343 82.5973L6.67908 78.9765L7.00969 77.7753L14.0948 79.7254L14.1266 79.6098L8.80946 71.2362L9.24438 69.6561L13.7804 76.9509L22.3926 73.3025L21.9895 74.7671L14.4104 77.9258L15.8933 80.2204L20.1649 81.3961L19.8343 82.5973Z" fill="black"/>
<path d="M25.3567 65.8797L24.7495 67.0358L14.9778 56.297L15.5974 55.1174L29.985 57.0677L29.3778 58.2238L16.7426 56.4187L16.6992 56.5013L25.3567 65.8797ZM21.1634 62.6162L24.3109 56.6236L25.3018 57.144L22.1543 63.1366L21.1634 62.6162Z" fill="black"/>
<path d="M34.3249 50.7669L23.8252 42.0533L26.6375 38.6645C27.2558 37.9194 27.9156 37.4165 28.6168 37.1557C29.3175 36.8887 30.0171 36.8315 30.7158 36.9842C31.4173 37.1335 32.0739 37.462 32.6857 37.9697C33.2975 38.4774 33.7446 39.062 34.0268 39.7234C34.3057 40.3819 34.3816 41.0798 34.2546 41.8171C34.1242 42.5515 33.7512 43.2896 33.1357 44.0312L30.9233 46.6972L30.0619 45.9824L32.2531 43.3421C32.7098 42.7918 32.9859 42.2504 33.0815 41.718C33.1737 41.1826 33.1141 40.6772 32.9027 40.2016C32.6941 39.7227 32.3609 39.2931 31.9029 38.9131C31.4449 38.533 30.9613 38.2846 30.4521 38.1679C29.9457 38.0478 29.4382 38.0855 28.9296 38.2811C28.4239 38.4732 27.9399 38.8478 27.4775 39.4049L25.4821 41.8094L35.1205 49.8081L34.3249 50.7669Z" fill="black"/>
<path d="M45.5843 38.5488L36.9945 27.9476L37.9625 27.1633L45.8477 36.8948L50.8998 32.8012L51.6044 33.6709L45.5843 38.5488Z" fill="black"/>
<path d="M58.1833 29.2925L57.0238 29.8931L55.1562 15.4945L56.3394 14.8817L67.0218 24.715L65.8622 25.3155L56.5337 16.6043L56.4509 16.6472L58.1833 29.2925ZM56.6122 24.2165L62.6229 21.1035L63.1376 22.0974L57.127 25.2104L56.6122 24.2165Z" fill="black"/>
<path d="M81.0372 6.09946L84.4246 19.3167L83.25 19.6178L72.6044 10.5509L72.5011 10.5774L75.3377 21.6456L74.1309 21.9549L70.7435 8.73759L71.9116 8.43821L82.5864 17.5113L82.6896 17.4849L79.8497 6.4038L81.0372 6.09946Z" fill="black"/>
<path d="M114.76 19.2246L117.91 5.94875L122.195 6.96542C123.137 7.18896 123.883 7.54628 124.433 8.03739C124.988 8.52521 125.354 9.1074 125.532 9.78398C125.714 10.4573 125.714 11.1807 125.53 11.9542C125.347 12.7278 125.023 13.3722 124.558 13.8873C124.098 14.4035 123.513 14.7531 122.803 14.9361C122.093 15.1192 121.271 15.1 120.338 14.8785L116.688 14.0126L116.951 12.9041L120.568 13.7623C121.26 13.9264 121.862 13.9482 122.374 13.8279C122.891 13.7086 123.312 13.4638 123.637 13.0936C123.967 12.7244 124.2 12.2503 124.338 11.6712C124.475 11.0921 124.48 10.5593 124.354 10.0728C124.228 9.58202 123.963 9.16291 123.557 8.8155C123.155 8.46913 122.604 8.21288 121.904 8.04677L118.864 7.32541L115.972 19.5122L114.76 19.2246ZM122.035 14.6238L123.881 21.3887L122.48 21.0564L120.667 14.2993L122.035 14.6238Z" fill="black"/>
<path d="M130.724 23.8476L129.544 23.289L139.867 13.0793L141.071 13.6493L139.721 28.1055L138.541 27.5469L139.819 14.8476L139.734 14.8077L130.724 23.8476ZM133.81 19.5222L139.929 22.4178L139.45 23.4295L133.332 20.5339L133.81 19.5222Z" fill="black"/>
<path d="M163.022 27.9765L154.56 38.6795L153.609 37.9275L154.372 23.9649L154.288 23.8988L147.201 32.8615L146.224 32.0888L154.687 21.3858L155.633 22.1337L154.882 36.1233L154.966 36.1894L162.061 27.2162L163.022 27.9765Z" fill="black"/>
<path d="M163.391 48.129L160.913 44.9928L171.618 36.5326L174.245 39.8569C175.052 40.878 175.529 41.9189 175.677 42.9797C175.827 44.0439 175.658 45.0834 175.169 46.0981C174.68 47.1128 173.88 48.0595 172.769 48.938C171.646 49.8248 170.526 50.3876 169.407 50.6265C168.294 50.8662 167.225 50.7773 166.199 50.3598C165.175 49.9459 164.239 49.2023 163.391 48.129ZM162.563 45.2762L164.224 47.3775C164.951 48.2974 165.741 48.9244 166.593 49.2582C167.446 49.5921 168.331 49.6483 169.249 49.4269C170.166 49.2055 171.09 48.7272 172.021 47.9919C172.942 47.2586 173.615 46.4774 174.041 45.6482C174.47 44.8225 174.628 43.973 174.515 43.0997C174.405 42.2299 174.007 41.3611 173.321 40.4935L171.512 38.204L162.563 45.2762Z" fill="black"/>
<path d="M171.667 60.1591L171.101 58.982L185.549 57.5485L186.126 58.7495L175.976 69.1313L175.411 67.9542L184.399 58.892L184.358 58.8079L171.667 60.1591ZM176.788 58.7415L179.718 64.843L178.709 65.3276L175.779 59.2261L176.788 58.7415Z" fill="black"/>
<path d="M178.423 76.39L191.661 73.0846L191.962 74.2933L179.81 77.3276L181.386 83.6363L180.3 83.9075L178.423 76.39Z" fill="black"/>
<path d="M181.438 91.7252L195.063 90.995L195.13 92.2391L182.623 92.9094L182.971 99.4025L181.853 99.4624L181.438 91.7252Z" fill="black"/>
<path d="M179.845 117.965L192.954 121.748L192.609 122.945L185.549 120.908L185.515 121.023L190.728 129.462L190.274 131.036L185.828 123.686L177.172 127.227L177.593 125.768L185.211 122.703L183.756 120.39L179.499 119.162L179.845 117.965Z" fill="black"/>
<path d="M174.116 134.613L174.737 133.464L184.375 144.323L183.741 145.495L169.379 143.367L170 142.218L182.612 144.18L182.657 144.098L174.116 134.613ZM178.268 137.928L175.047 143.881L174.063 143.348L177.284 137.395L178.268 137.928Z" fill="black"/>
<path d="M164.961 149.613L175.352 158.456L172.498 161.81C171.871 162.547 171.205 163.042 170.5 163.294C169.796 163.552 169.096 163.601 168.399 163.439C167.7 163.281 167.047 162.945 166.442 162.43C165.836 161.914 165.397 161.324 165.123 160.659C164.852 159.998 164.785 159.299 164.921 158.563C165.06 157.83 165.442 157.097 166.067 156.363L168.312 153.725L169.165 154.45L166.941 157.063C166.478 157.608 166.195 158.146 166.093 158.677C165.994 159.211 166.047 159.717 166.253 160.195C166.455 160.677 166.783 161.11 167.236 161.496C167.69 161.882 168.17 162.136 168.678 162.259C169.183 162.385 169.691 162.354 170.201 162.165C170.71 161.979 171.198 161.61 171.667 161.059L173.692 158.68L164.154 150.562L164.961 149.613Z" fill="black"/>
<path d="M153.551 161.691L162.009 172.398L161.031 173.17L153.267 163.341L148.165 167.372L147.471 166.494L153.551 161.691Z" fill="black"/>
<path d="M140.839 170.79L142.005 170.204L143.694 184.625L142.504 185.223L131.944 175.258L133.111 174.672L142.331 183.498L142.414 183.456L140.839 170.79ZM142.347 175.885L136.298 178.924L135.795 177.923L141.844 174.885L142.347 175.885Z" fill="black"/>
<path d="M117.699 193.699L114.476 180.44L115.654 180.154L126.187 189.352L126.29 189.327L123.591 178.224L124.802 177.93L128.025 191.188L126.853 191.473L116.292 182.268L116.188 182.294L118.89 193.409L117.699 193.699Z" fill="black"/>
</svg>
